<svg width="22" height="18" viewBox="0 0 22 18" fill="none" xmlns="http://www.w3.org/2000/svg">
<path d="M20.5526 1.47988C19.615 0.521411 18.3919 0.0285196 17.1607 0.00120321C15.8572 -0.0277304 14.5446 0.465161 13.5519 1.47988L11.598 3.47848C12.0926 3.73948 12.5574 4.05954 12.9726 4.45881L14.7185 2.67297C15.362 2.01545 16.2069 1.68642 17.0523 1.68642C17.8972 1.68642 18.7426 2.01545 19.386 2.67297C20.6724 3.98916 20.6724 6.13038 19.386 7.44653L15.4968 11.4236C14.2491 12.6996 12.0765 12.6986 10.8299 11.4236C10.2063 10.7858 9.86308 9.93879 9.86308 9.03682C9.86308 8.41951 10.035 7.83332 10.3367 7.31677C9.94988 6.9523 9.41243 6.73957 8.84149 6.73957C8.81787 6.73957 8.7955 6.74548 8.77202 6.74615C8.42005 7.4499 8.21301 8.22376 8.21301 9.03682C8.21301 10.3892 8.72816 11.6609 9.66326 12.6167C10.5978 13.5731 11.8413 14.0999 13.1636 14.0999C14.4855 14.0999 15.7288 13.5731 16.6634 12.6167L20.5526 8.63966C21.5175 7.65254 22 6.35616 22 5.05977C22 3.76338 21.5175 2.46699 20.5526 1.47988ZM7.28145 15.3271C6.63798 15.9846 5.79312 16.3136 4.94773 16.3136C4.10283 16.3136 3.25744 15.9846 2.61398 15.3271C1.3276 14.0109 1.3276 11.8696 2.61398 10.5535L6.5032 6.57641C7.75088 5.30034 9.92351 5.30147 11.1701 6.57641C11.7937 7.21418 12.1369 8.06124 12.1369 8.96321C12.1369 9.58051 11.965 10.1667 11.6633 10.6833C12.0501 11.0477 12.5876 11.2605 13.1585 11.2605C13.1821 11.2605 13.2045 11.2546 13.228 11.2538C13.5799 10.5501 13.787 9.77627 13.787 8.96321C13.787 7.61078 13.2718 6.33911 12.3367 5.38331C11.4022 4.42696 10.1587 3.90014 8.8364 3.90014C7.51455 3.90014 6.27117 4.42696 5.33658 5.38331L1.44736 9.36037C0.482453 10.3475 0 11.6439 0 12.9403C0 14.2366 0.482453 15.533 1.44736 16.5202C2.34482 17.4375 3.50371 17.9283 4.68095 17.9927C6.03587 18.0668 7.41513 17.576 8.44807 16.5202L10.402 14.5215C9.90739 14.2606 9.44257 13.9405 9.02739 13.5412L7.28145 15.3271Z" fill="#58595D"/>
</svg>
